<?xml version="1.0" encoding="UTF-8"?>
<svg id="Layer_2" data-name="Layer 2" xmlns="http://www.w3.org/2000/svg" viewBox="0 0 705.74 170.27">
  <defs>
    <style>
      .cls-1 {
        fill: #ff6700;
      }
    </style>
  </defs>
  <g id="Layer_1-2" data-name="Layer 1">
    <g>
      <g>
        <path d="M313.16,21.36c11.72,0,21.83,2.16,27.42,6.31,7.03,5.06,11.55,14.62,11.55,24.18,0,9.02-3.07,15.87-9.02,20.56-1.44,1.44-3.07,2.34-6.13,4.33,4.5,2.35,7.93,4.51,10.46,6.68,5.23,4.51,8.48,12.27,8.48,21.47,0,13.17-5.6,24.71-15.52,30.67-6.5,4.15-15.69,6.13-27.78,6.13h-56.65V21.36h57.2ZM327.41,55.1c0-10.29-5.06-13.72-20.21-13.72h-26.71v27.61h27.06c14.44,0,19.85-3.79,19.85-13.89ZM330.47,104.52c0-10.1-6.49-15.87-18.58-15.87h-31.4v32.47h29.41c13.71,0,20.56-5.6,20.56-16.6Z"/>
        <path d="M383.53,52.2l.53,13.9c5.23-11,12.99-15.88,29.22-16.78v23.81c-12.44.9-16.05,1.26-19.84,4.15-5.96,3.79-8.66,9.38-8.66,18.04v46.36h-23.27V52.2h22.01Z"/>
        <path d="M438.91,144.57c-17.49,0-28.32-9.92-28.32-26.52,0-9.56,3.78-18.03,10.28-22.37,4.5-3.43,12.62-5.41,26.34-7.4,10.09-1.44,12.27-1.8,15.15-3.24,2.53-1.45,3.78-3.43,3.97-5.78.54-5.96-5.23-10.65-13.71-10.65-10.29,0-15.88,4.16-16.6,12.45h-22.37c.54-9.56,2.53-14.97,8.12-20.57,7.03-7.03,17.32-10.28,33.02-10.28,14.61,0,26.15,4.88,31.74,12.81,2.17,3.43,3.25,8.3,3.25,14.8v46.18c0,3.06.54,6.31,1.44,9.38.54,2.16,1.26,3.43,3.97,5.41v2.88h-26.7l-1.62-10.82c-5.6,8.48-15.88,13.71-27.97,13.71ZM450.64,103.62c-12.27,2.71-15.88,5.41-15.88,12.44s4.15,10.82,12.63,10.82c6.68,0,13.53-3.6,16.24-8.47,1.62-2.71,2.34-6.85,2.34-11.91v-6.49c-8.12,1.99-11.72,2.88-15.33,3.6Z"/>
        <path d="M523.17,21.36v120.33h-23.27V21.36h23.27Z"/>
        <path d="M540.5,52.39v-25.08h23.81v25.08h14.97v16.77h-14.61v45.46c0,5.96.54,8.3,2.52,9.2,1.99.9,4.69,1.26,8.31,1.26l3.78-.19v18.04h-18.22c-12.99,0-20.56-7.58-20.56-20.56v-53.22h-12.09v-16.77h12.09Z"/>
        <path d="M673.1,97.31c0,29.76-17.32,48.17-46.18,48.17s-46.18-18.41-46.18-48.17,17.31-48.36,46.18-48.36,46.18,18.04,46.18,48.36ZM605.81,96.59c0,19.66,7.03,29.4,21.28,29.4s21.11-9.93,21.11-28.5-7.4-28.5-21.11-28.5-21.28,10.1-21.28,27.61Z"/>
        <path class="cls-1" d="M705.74,48.84c0,10.92-8.57,19.5-19.74,19.5s-19.86-8.58-19.86-19.5,8.81-19.27,19.86-19.27,19.74,8.57,19.74,19.27ZM671.08,48.84c0,8.57,6.34,15.39,15.04,15.39s14.69-6.81,14.69-15.27-6.23-15.51-14.8-15.51-14.92,6.93-14.92,15.39ZM682.95,58.94h-4.46v-19.27c1.76-.35,4.23-.59,7.4-.59,3.64,0,5.28.59,6.7,1.41,1.05.82,1.88,2.35,1.88,4.23,0,2.12-1.65,3.76-3.99,4.46v.24c1.88.71,2.94,2.12,3.53,4.7.59,2.93.94,4.11,1.41,4.81h-4.82c-.59-.7-.94-2.46-1.52-4.7-.35-2.12-1.53-3.06-3.99-3.06h-2.12v7.75ZM683.07,48.02h2.12c2.46,0,4.46-.82,4.46-2.82,0-1.76-1.29-2.93-4.11-2.93-1.18,0-2,.12-2.47.23v5.53Z"/>
      </g>
      <g>
        <path d="M48.29,126.64c2.48-4.58,2.98-9.75,1.36-14.19-1.96-5.38-7.1-9.15-12.5-9.17h-.05c-3.11,0-6.19,1.31-8.46,3.6-2.16,2.18-3.34,4.98-3.3,7.87.03,2.69,2.23,4.85,4.91,4.85.02,0,.04,0,.06,0,2.71-.03,4.89-2.26,4.85-4.98,0-.22.17-.55.45-.83.42-.42,1-.69,1.48-.69h0c1.3,0,2.76,1.2,3.31,2.71.64,1.76.35,4.06-.77,6.14-2.37,4.37-8.33,6.86-13.28,5.54-4.99-1.32-9.06-6.33-9.48-11.65-.42-5.34,2.66-10.99,7.48-13.74,4.58-2.61,10.45-2.45,16.67-2.29,3.38.09,6.88.18,10.38-.16,1.59-.15,3.14-.33,4.66-.53-.16-.96-.25-1.94-.25-2.94,0-.64.04-1.28.11-1.91.05-1.78.32-3.51.83-5.17-2.02.3-4.11.55-6.29.76-2.91.28-5.95.2-9.18.12-7.29-.19-14.84-.38-21.79,3.58-8.15,4.64-13.14,13.91-12.42,23.05.75,9.58,7.65,17.96,16.76,20.38,1.76.47,3.55.69,5.34.69,7.77,0,15.41-4.22,19.11-11.05Z"/>
        <path d="M28.76,85.42c4.9-1.77,8.72-5.29,10.46-9.68,2.12-5.32.79-11.56-3.22-15.17-2.32-2.09-5.51-3.18-8.75-2.98-3.07.19-5.8,1.49-7.7,3.68-1.78,2.05-1.57,5.15.48,6.94,2.05,1.78,5.15,1.57,6.94-.48.15-.17.49-.29.89-.32.59-.04,1.21.15,1.57.47.97.87,1.26,2.73.66,4.23-.69,1.74-2.44,3.26-4.66,4.07-4.68,1.69-10.78-.43-13.6-4.71-2.84-4.31-2.55-10.76.68-15,3.24-4.26,9.3-6.43,14.73-5.27,5.15,1.1,9.43,5.13,13.97,9.39,2.46,2.32,5.01,4.71,7.85,6.79,1.78,1.3,3.53,2.52,5.26,3.66.12-3.65.75-7.23,1.86-10.65-.43-.31-.87-.62-1.31-.94-2.36-1.73-4.58-3.81-6.93-6.02-5.32-5-10.82-10.16-18.64-11.84-9.17-1.96-19.06,1.63-24.61,8.93-5.82,7.65-6.25,18.49-1.06,26.36,4.04,6.12,11.19,9.72,18.32,9.72,2.31,0,4.62-.38,6.83-1.17Z"/>
        <path d="M40.86,42.69c4.87,1.84,10.06,1.64,14.24-.56,5.07-2.67,8.11-8.27,7.41-13.62-.41-3.1-2.12-6-4.71-7.95-2.45-1.85-5.38-2.64-8.24-2.21-2.69.4-4.54,2.9-4.14,5.58.4,2.69,2.9,4.54,5.58,4.14.22-.03.57.1.88.33.48.36.82.9.89,1.38.17,1.29-.81,2.89-2.24,3.64-1.66.88-3.97.9-6.19.06-4.65-1.76-7.91-7.33-7.28-12.42.64-5.12,5.06-9.83,10.27-10.96,5.23-1.14,11.25,1.16,14.62,5.57,3.2,4.18,3.84,10.03,4.52,16.21.37,3.36.75,6.84,1.56,10.26.05.2.1.39.14.59,1.92-1.6,3.99-3.02,6.19-4.21.88-.48,1.79-.92,2.71-1.33-.34-2.04-.58-4.17-.83-6.39-.79-7.25-1.62-14.75-6.48-21.11C64.06,2.27,54.21-1.43,45.24.51c-9.39,2.04-16.77,9.99-17.94,19.35-1.21,9.64,4.62,19.46,13.55,22.83Z"/>
        <path d="M115.57,41.53c.52.39,1.03.79,1.53,1.21.05-.19.09-.38.14-.57.81-3.43,1.19-6.9,1.56-10.26.68-6.19,1.32-12.03,4.51-16.21,3.37-4.41,9.39-6.7,14.62-5.57,5.21,1.13,9.63,5.84,10.27,10.96.64,5.09-2.63,10.66-7.28,12.42-2.21.84-4.52.81-6.18-.06-1.43-.75-2.41-2.35-2.24-3.64.06-.48.41-1.02.89-1.38.31-.24.66-.37.88-.33,2.69.4,5.19-1.45,5.58-4.14.4-2.69-1.46-5.19-4.14-5.58-2.87-.43-5.79.36-8.24,2.21-2.59,1.95-4.31,4.85-4.71,7.95-.7,5.36,2.35,10.96,7.41,13.62,4.17,2.2,9.37,2.4,14.24.56,8.93-3.38,14.76-13.19,13.55-22.83-1.17-9.36-8.55-17.31-17.94-19.35-8.97-1.94-18.82,1.76-24.51,9.21-4.86,6.36-5.68,13.86-6.48,21.12-.24,2.21-.48,4.34-.83,6.38,2.04.91,4,1.99,5.87,3.25.51.34,1.01.7,1.5,1.07Z"/>
        <path d="M125.42,121.05c-2.51-2.03-4.87-3.95-6.9-6.06-.24-.25-.47-.5-.71-.75-1.35,1.08-2.76,2.05-4.22,2.94-1.15.95-2.39,1.95-3.72,2.97.52.55,1.04,1.11,1.58,1.67,2.44,2.53,5.16,4.74,7.79,6.87,4.83,3.92,9.4,7.62,11.18,12.58,1.88,5.23.55,11.52-3.24,15.31-3.78,3.77-10.13,4.93-14.78,2.69-4.62-2.22-7.54-7.98-6.5-12.84.5-2.31,1.77-4.24,3.4-5.17,1.4-.79,3.28-.75,4.28.09.37.31.64.9.68,1.49.03.39-.05.75-.19.92-1.79,2.04-1.59,5.15.45,6.94,2.04,1.79,5.15,1.59,6.94-.45,1.91-2.18,2.83-5.06,2.61-8.13-.24-3.23-1.74-6.25-4.13-8.27-4.12-3.49-10.48-3.97-15.46-1.15-4.11,2.32-7.09,6.57-8.18,11.67-2,9.34,3.09,19.56,11.85,23.76,3,1.44,6.27,2.14,9.55,2.14,6.01,0,12.03-2.34,16.43-6.74,6.49-6.48,8.72-16.77,5.54-25.59-2.71-7.53-8.57-12.29-14.24-16.88Z"/>
        <path d="M180.58,50.5c-5.55-7.31-15.44-10.89-24.61-8.93-7.83,1.67-13.33,6.84-18.64,11.84-2.35,2.21-4.57,4.3-6.93,6.02-.44.32-.87.63-1.31.94,1.12,3.43,1.73,7.03,1.85,10.65,1.74-1.15,3.49-2.36,5.27-3.67,2.84-2.08,5.39-4.47,7.85-6.79,4.54-4.26,8.82-8.29,13.97-9.39,5.44-1.16,11.49,1.01,14.73,5.27,3.23,4.25,3.52,10.7.68,15-2.82,4.28-8.92,6.39-13.6,4.71-2.22-.8-3.97-2.32-4.66-4.06-.6-1.5-.3-3.35.67-4.23.36-.32.97-.51,1.57-.47.39.02.74.15.88.32,1.78,2.05,4.89,2.26,6.93.48,2.05-1.78,2.26-4.89.48-6.94-1.9-2.18-4.64-3.49-7.7-3.68-3.23-.2-6.42.89-8.75,2.98-4.01,3.61-5.34,9.85-3.22,15.17,1.75,4.38,5.56,7.91,10.46,9.68,2.2.79,4.51,1.17,6.83,1.17,7.13,0,14.28-3.6,18.32-9.72,5.19-7.87,4.75-18.71-1.06-26.36Z"/>
        <path d="M165.76,93.57c-6.96-3.96-14.5-3.77-21.79-3.58-3.23.08-6.27.16-9.18-.12-2.18-.21-4.27-.46-6.29-.76.51,1.66.78,3.4.83,5.17.07.63.11,1.27.11,1.91,0,.99-.08,1.97-.24,2.94,1.52.2,3.06.38,4.65.53,3.5.34,7,.25,10.38.16,6.22-.16,12.1-.31,16.67,2.29,4.83,2.75,7.9,8.4,7.48,13.74-.42,5.32-4.49,10.33-9.48,11.65-4.96,1.32-10.92-1.17-13.28-5.54-1.13-2.08-1.41-4.37-.77-6.14.55-1.51,2.01-2.7,3.31-2.71h0c.48,0,1.06.27,1.48.69.28.28.45.6.45.83-.03,2.71,2.14,4.94,4.85,4.98.02,0,.04,0,.06,0,2.69,0,4.88-2.16,4.91-4.85.04-2.89-1.14-5.69-3.3-7.87-2.28-2.3-5.36-3.62-8.51-3.6-5.4.02-10.54,3.8-12.5,9.17-1.62,4.43-1.12,9.6,1.36,14.19,3.7,6.83,11.34,11.05,19.11,11.05,1.79,0,3.58-.22,5.34-.69,9.11-2.42,16-10.8,16.76-20.38.72-9.15-4.27-18.41-12.42-23.05Z"/>
        <path d="M80.79,132.7c-4.99-2.81-11.35-2.34-15.46,1.15-2.38,2.02-3.89,5.03-4.13,8.27-.23,3.07.7,5.95,2.61,8.13,1.79,2.04,4.9,2.25,6.94.46,2.04-1.79,2.25-4.9.46-6.94-.15-.17-.22-.53-.19-.92.04-.59.31-1.18.68-1.49.99-.84,2.87-.88,4.28-.09,1.63.92,2.91,2.85,3.4,5.17,1.04,4.86-1.87,10.62-6.5,12.84-4.65,2.23-11,1.08-14.78-2.69-3.79-3.79-5.12-10.08-3.24-15.31,1.78-4.95,6.35-8.66,11.18-12.58,2.63-2.13,5.34-4.33,7.79-6.87.77-.8,1.52-1.6,2.25-2.4l-1.04-.78c-2.06-1.05-4.05-2.27-5.93-3.68l-1.36-1.02c-.33.35-.66.7-1,1.05-2.03,2.1-4.39,4.02-6.9,6.06-5.67,4.6-11.53,9.35-14.24,16.88-3.18,8.82-.95,19.11,5.54,25.59,4.4,4.4,10.43,6.74,16.44,6.74,3.28,0,6.55-.7,9.55-2.14,8.76-4.21,13.85-14.42,11.85-23.76-1.09-5.1-4.07-9.35-8.18-11.67Z"/>
        <path d="M117.15,108.26c.56-.54,1.15-1.05,1.79-1.49,1.55-1.08,2.86-2.49,3.81-4.13.14-.24.27-.48.39-.73.25-.49.46-1,.64-1.53.45-1.32.7-2.73.7-4.2,0-1.17-.16-2.31-.45-3.38-.85-3.12-.97-6.42.1-9.47,1.22-3.46,1.88-7.19,1.88-11.07,0-5.76-1.46-11.18-4.03-15.91-.51-.95-1.07-1.86-1.67-2.75-1.5-2.22-3.26-4.25-5.24-6.05-.79-.72-1.62-1.4-2.47-2.04-.43-.32-.86-.63-1.31-.93-5.33-3.6-11.75-5.7-18.66-5.7h0c-4.03,0-7.9.72-11.48,2.03-.51.19-1.02.39-1.52.6-1,.42-1.97.89-2.92,1.41-2.37,1.28-4.56,2.85-6.53,4.64-.79.72-1.55,1.47-2.26,2.26-5.39,5.93-8.67,13.8-8.67,22.45,0,3.88.66,7.61,1.88,11.07,1.07,3.05.95,6.35.1,9.48-.29,1.08-.45,2.21-.45,3.38,0,2.65.8,5.1,2.17,7.15,1.06,1.59,2.47,2.93,4.12,3.92l4.99,3.74c6.23,4.67,13.59,6.97,20.93,6.97,8.69,0,17.35-3.23,24.04-9.59.04-.04.08-.08.12-.11ZM86.25,93.59c-.26.65-.88,1.04-1.53,1.04-.2,0-.41-.04-.61-.12l-12.03-4.83c-.85-.34-1.26-1.3-.92-2.15.34-.85,1.3-1.26,2.15-.92l12.03,4.83c.85.34,1.26,1.3.92,2.15ZM114.71,89.67l-12.03,4.83c-.2.08-.41.12-.61.12-.65,0-1.27-.39-1.53-1.04-.34-.85.07-1.81.92-2.15l12.03-4.83c.85-.34,1.81.07,2.15.92.34.85-.07,1.81-.92,2.15Z"/>
        <circle class="cls-1" cx="92.63" cy="21.97" r="7.47"/>
      </g>
      <rect x="210.36" width="8.19" height="170.27"/>
    </g>
  </g>
</svg>